<mxfile host="65bd71144e">
    <diagram id="8te7wb21LjJar14m4qgC" name="Page-1">
        <mxGraphModel dx="440" dy="1124" grid="1" gridSize="10" guides="1" tooltips="1" connect="1" arrows="1" fold="1" page="1" pageScale="1" pageWidth="850" pageHeight="1100" math="0" shadow="0">
            <root>
                <mxCell id="0"/>
                <mxCell id="1" parent="0"/>
                <mxCell id="3" value="&lt;font style=&quot;font-size: 42px;&quot;&gt;NewsLibs&lt;br&gt;&lt;br&gt;&lt;br&gt;&lt;br&gt;&lt;/font&gt;" style="rounded=0;whiteSpace=wrap;html=1;fontSize=24;verticalAlign=middle;fontColor=#FFFFFF;" parent="1" vertex="1">
                    <mxGeometry x="40" y="40" width="760" height="660" as="geometry"/>
                </mxCell>
                <mxCell id="29" value="New Lib" style="rounded=1;whiteSpace=wrap;html=1;fontSize=24;" vertex="1" parent="1">
                    <mxGeometry x="200" y="350" width="220" height="110" as="geometry"/>
                </mxCell>
                <mxCell id="30" value="Random Lib" style="rounded=1;whiteSpace=wrap;html=1;fontSize=24;" vertex="1" parent="1">
                    <mxGeometry x="430" y="350" width="230" height="110" as="geometry"/>
                </mxCell>
                <mxCell id="32" value="Instructions" style="rounded=1;whiteSpace=wrap;html=1;fontSize=24;" vertex="1" parent="1">
                    <mxGeometry x="200" y="470" width="460" height="40" as="geometry"/>
                </mxCell>
                <mxCell id="35" value="&lt;br&gt;INSTRUCTIONS&lt;br&gt;&lt;br&gt;Bruh you don't know how to play madlibs?&amp;nbsp;&lt;span style=&quot;font-family: &amp;quot;Open Sans&amp;quot;, Arial, sans-serif; font-size: 14px; text-align: justify;&quot;&gt;Lorem ipsum dolor sit amet, consectetur adipiscing elit, sed do eiusmod tempor incididunt ut labore et dolore magna aliqua. Ut enim ad minim veniam, quis nostrud exercitation ullamco laboris nisi ut aliquip ex ea commodo consequat. Duis aute irure dolor in reprehenderit in voluptate velit esse cillum dolore eu fugiat nulla pariatur. Excepteur sint occaecat cupidatat non proident, sunt in culpa qui officia deserunt mollit anim id est laborum.&lt;/span&gt;" style="rounded=1;whiteSpace=wrap;html=1;fontSize=24;verticalAlign=top;labelBackgroundColor=none;fontColor=default;" vertex="1" parent="1">
                    <mxGeometry x="950" y="220" width="520" height="360" as="geometry"/>
                </mxCell>
                <mxCell id="36" value="" style="shape=flexArrow;endArrow=classic;html=1;fontSize=24;fillColor=#0050ef;strokeColor=#001DBC;endWidth=85.91836734693878;endSize=33.800000000000004;width=72.85714285714286;" edge="1" parent="1">
                    <mxGeometry width="50" height="50" relative="1" as="geometry">
                        <mxPoint x="620" y="500" as="sourcePoint"/>
                        <mxPoint x="940" y="310" as="targetPoint"/>
                    </mxGeometry>
                </mxCell>
                <mxCell id="37" value="click" style="edgeLabel;html=1;align=center;verticalAlign=middle;resizable=0;points=[];fontSize=24;labelBackgroundColor=none;" vertex="1" connectable="0" parent="36">
                    <mxGeometry x="0.5461" y="5" relative="1" as="geometry">
                        <mxPoint x="-91" y="51" as="offset"/>
                    </mxGeometry>
                </mxCell>
                <mxCell id="38" value="( Modal )" style="text;html=1;strokeColor=none;fillColor=none;align=center;verticalAlign=middle;whiteSpace=wrap;rounded=0;labelBackgroundColor=none;fontSize=24;" vertex="1" parent="1">
                    <mxGeometry x="1100" y="170" width="220" height="30" as="geometry"/>
                </mxCell>
                <mxCell id="41" value="OK SENOR" style="rounded=1;whiteSpace=wrap;html=1;labelBackgroundColor=none;fontSize=24;fontColor=#ffffff;fillColor=#d80073;strokeColor=#A50040;" vertex="1" parent="1">
                    <mxGeometry x="1120" y="530" width="180" height="40" as="geometry"/>
                </mxCell>
            </root>
        </mxGraphModel>
    </diagram>
</mxfile>